<svg xmlns="http://www.w3.org/2000/svg" viewBox="0 0 1785 702"><defs><style>.cls-1,.cls-12,.cls-14,.cls-5{fill:#ae2d68;}.cls-2{fill:#660f56;}.cls-3,.cls-9{fill:none;}.cls-12,.cls-14,.cls-3,.cls-5,.cls-9{stroke:#fff;stroke-miterlimit:10;}.cls-3{stroke-width:2px;}.cls-4{fill:#1f0005;opacity:0.5;}.cls-5{stroke-width:5px;}.cls-6{fill:red;}.cls-7{fill:#ff0;}.cls-8{fill:#0f00b6;}.cls-9{stroke-width:3px;}.cls-10{fill:#274472;}.cls-11{fill:#4a003a;}.cls-12,.cls-14{stroke-width:0.5px;}.cls-12,.cls-13{opacity:0.2;}.cls-15{font-size:491.43px;fill:#fff;font-family:Papyrus-Regular, Papyrus;}</style></defs><g id="Layer_2" data-name="Layer 2"><path class="cls-1" d="M421.73,270.5V477.41H332.6a8.26,8.26,0,0,1-8.26-8.26V300.24a29.73,29.73,0,0,1,29.71-29.74Z" transform="translate(-111 -270)"/><path class="cls-2" d="M438.24,484V897H140.71A29.72,29.72,0,0,1,111,867.26V513.75A29.73,29.73,0,0,1,140.71,484Z" transform="translate(-111 -270)"/><path class="cls-2" d="M438.24,484H494a29.73,29.73,0,0,1,29.71,29.74V867.26A29.73,29.73,0,0,1,494,897H438.24Z" transform="translate(-111 -270)"/><path class="cls-1" d="M737,300.24V653.75a29.73,29.73,0,0,1-29.71,29.74H538.51a8.25,8.25,0,0,1-8.25-8.26V508.09a30.67,30.67,0,0,0-30.66-30.68H421.73V270.5H707.29A29.72,29.72,0,0,1,737,300.24Z" transform="translate(-111 -270)"/><path class="cls-3" d="M438.65,531.92" transform="translate(-111 -270)"/><path class="cls-3" d="M111,531.92" transform="translate(-111 -270)"/><path class="cls-3" d="M523.66,522" transform="translate(-111 -270)"/><path class="cls-3" d="M438.65,522" transform="translate(-111 -270)"/><line class="cls-3" y1="261.92" x2="412.66" y2="261.92"/><path class="cls-4" d="M36,213.19H376.66a36,36,0,0,1,36,36v11.91a0,0,0,0,1,0,0H0a0,0,0,0,1,0,0V249.19A36,36,0,0,1,36,213.19Z"/><path class="cls-5" d="M305.15,770.23a20.86,20.86,0,0,1-29.48,29.51L182.6,706.6a24.93,24.93,0,0,1,.05-32.55l93.07-93.14a20.85,20.85,0,1,1,29.48,29.5l-79.87,79.93Z" transform="translate(-111 -270)"/><path class="cls-5" d="M462.81,707.6l-93.07,93.15a20.85,20.85,0,0,1-29.48-29.5l79.83-79.89-79.88-79.94a20.85,20.85,0,1,1,29.48-29.5l93.07,93.14a24.91,24.91,0,0,1,.05,32.54Z" transform="translate(-111 -270)"/><ellipse class="cls-6" cx="20.63" cy="243.75" rx="8.25" ry="8.26"/><ellipse class="cls-7" cx="47.04" cy="243.75" rx="8.25" ry="8.26"/><ellipse class="cls-8" cx="73.45" cy="243.75" rx="8.25" ry="8.26"/><line class="cls-9" x1="310.73" y1="26.93" x2="310.73" y2="191.3"/><rect class="cls-10" x="232.74" y="24.04" width="19.81" height="6.61" rx="3.3"/><rect class="cls-10" x="232.74" y="38.91" width="19.81" height="6.61" rx="3.3"/><rect class="cls-10" x="232.74" y="53.78" width="19.81" height="6.61" rx="3.3"/><rect class="cls-10" x="232.74" y="68.64" width="19.81" height="6.61" rx="3.3"/><rect class="cls-10" x="232.74" y="83.51" width="19.81" height="6.61" rx="3.3"/><rect class="cls-10" x="232.74" y="98.38" width="19.81" height="6.61" rx="3.3"/><rect class="cls-10" x="232.74" y="113.25" width="19.81" height="6.61" rx="3.3"/><rect class="cls-10" x="232.74" y="128.11" width="19.81" height="6.61" rx="3.3"/><rect class="cls-10" x="232.74" y="142.98" width="19.81" height="6.61" rx="3.3"/><rect class="cls-10" x="232.74" y="157.85" width="19.81" height="6.61" rx="3.3"/><rect class="cls-10" x="232.74" y="172.72" width="19.81" height="6.61" rx="3.3"/><rect class="cls-10" x="232.74" y="187.58" width="19.81" height="6.61" rx="3.3"/><rect class="cls-11" x="259.15" y="24.04" width="43.74" height="6.61" rx="3.3"/><rect class="cls-11" x="259.15" y="38.91" width="43.74" height="6.61" rx="3.3"/><rect class="cls-11" x="259.15" y="53.78" width="43.74" height="6.61" rx="3.3"/><rect class="cls-11" x="259.15" y="68.64" width="43.74" height="6.61" rx="3.3"/><rect class="cls-11" x="259.15" y="83.51" width="43.74" height="6.61" rx="3.3"/><rect class="cls-11" x="259.15" y="98.38" width="43.74" height="6.61" rx="3.3"/><rect class="cls-11" x="259.15" y="113.25" width="43.74" height="6.61" rx="3.3"/><rect class="cls-11" x="259.15" y="128.11" width="43.74" height="6.61" rx="3.3"/><rect class="cls-11" x="259.15" y="142.98" width="43.74" height="6.61" rx="3.3"/><rect class="cls-11" x="259.15" y="157.85" width="43.74" height="6.61" rx="3.3"/><rect class="cls-11" x="259.15" y="172.72" width="43.74" height="6.61" rx="3.3"/><rect class="cls-11" x="259.15" y="187.58" width="43.74" height="6.61" rx="3.3"/><rect class="cls-10" x="327.65" y="24.04" width="135.35" height="6.61" rx="3.3"/><rect class="cls-10" x="327.65" y="38.91" width="135.35" height="6.61" rx="3.3"/><rect class="cls-10" x="327.65" y="53.78" width="135.35" height="6.61" rx="3.3"/><rect class="cls-10" x="327.65" y="68.64" width="135.35" height="6.61" rx="3.3"/><rect class="cls-10" x="327.65" y="83.51" width="135.35" height="6.61" rx="3.3"/><rect class="cls-10" x="327.65" y="98.38" width="135.35" height="6.61" rx="3.3"/><rect class="cls-10" x="327.65" y="113.25" width="135.35" height="6.61" rx="3.3"/><rect class="cls-10" x="327.65" y="128.11" width="135.35" height="6.61" rx="3.3"/><rect class="cls-10" x="327.65" y="142.98" width="135.35" height="6.61" rx="3.3"/><rect class="cls-10" x="327.65" y="157.85" width="135.35" height="6.61" rx="3.3"/><rect class="cls-10" x="327.65" y="172.72" width="135.35" height="6.61" rx="3.3"/><rect class="cls-10" x="327.65" y="187.58" width="135.35" height="6.61" rx="3.3"/><rect class="cls-11" x="472.9" y="24.04" width="43.74" height="6.61" rx="3.3"/><rect class="cls-11" x="472.9" y="38.91" width="43.74" height="6.61" rx="3.3"/><rect class="cls-11" x="472.9" y="53.78" width="43.74" height="6.61" rx="3.3"/><rect class="cls-11" x="472.9" y="68.64" width="43.74" height="6.61" rx="3.3"/><rect class="cls-11" x="472.9" y="83.51" width="43.74" height="6.61" rx="3.3"/><rect class="cls-11" x="472.9" y="98.38" width="43.74" height="6.61" rx="3.3"/><rect class="cls-11" x="472.9" y="113.25" width="43.74" height="6.61" rx="3.3"/><rect class="cls-11" x="472.9" y="128.11" width="43.74" height="6.61" rx="3.3"/><rect class="cls-11" x="472.9" y="142.98" width="43.74" height="6.61" rx="3.3"/><rect class="cls-11" x="472.9" y="157.85" width="43.74" height="6.61" rx="3.3"/><rect class="cls-11" x="472.9" y="172.72" width="43.74" height="6.61" rx="3.3"/><rect class="cls-11" x="472.9" y="187.58" width="43.74" height="6.61" rx="3.3"/><rect class="cls-11" x="524.9" y="24.04" width="76.75" height="6.61" rx="3.3"/><rect class="cls-11" x="524.9" y="38.91" width="76.75" height="6.61" rx="3.3"/><rect class="cls-11" x="524.9" y="53.78" width="76.75" height="6.61" rx="3.3"/><rect class="cls-11" x="524.9" y="68.64" width="76.75" height="6.61" rx="3.3"/><rect class="cls-11" x="524.9" y="83.51" width="76.75" height="6.61" rx="3.3"/><rect class="cls-11" x="524.9" y="98.38" width="76.75" height="6.61" rx="3.3"/><rect class="cls-11" x="524.9" y="113.25" width="76.75" height="6.61" rx="3.3"/><rect class="cls-11" x="524.9" y="128.11" width="76.75" height="6.61" rx="3.3"/><rect class="cls-11" x="524.9" y="142.98" width="76.75" height="6.61" rx="3.3"/><rect class="cls-11" x="524.9" y="157.85" width="76.75" height="6.61" rx="3.3"/><rect class="cls-11" x="524.9" y="172.72" width="76.75" height="6.61" rx="3.3"/><rect class="cls-11" x="524.9" y="187.58" width="76.75" height="6.61" rx="3.3"/><rect class="cls-10" x="443.19" y="237.14" width="103.99" height="6.61" rx="3.3"/><rect class="cls-10" x="443.19" y="252.01" width="103.99" height="6.61" rx="3.3"/><rect class="cls-10" x="443.19" y="266.88" width="103.99" height="6.61" rx="3.3"/><rect class="cls-10" x="443.19" y="281.74" width="103.99" height="6.61" rx="3.3"/><rect class="cls-10" x="443.19" y="296.61" width="103.99" height="6.61" rx="3.3"/><rect class="cls-10" x="443.19" y="311.48" width="103.99" height="6.61" rx="3.3"/><rect class="cls-10" x="443.19" y="326.35" width="103.99" height="6.61" rx="3.3"/><rect class="cls-10" x="443.19" y="341.21" width="103.99" height="6.61" rx="3.3"/><rect class="cls-10" x="443.19" y="356.08" width="103.99" height="6.61" rx="3.3"/><rect class="cls-10" x="443.19" y="370.95" width="103.99" height="6.61" rx="3.3"/><rect class="cls-10" x="443.19" y="385.82" width="103.99" height="6.61" rx="3.3"/><rect class="cls-11" x="557.91" y="235.49" width="43.74" height="6.61" rx="3.3"/><rect class="cls-11" x="557.91" y="250.36" width="43.74" height="6.61" rx="3.3"/><rect class="cls-11" x="557.91" y="265.22" width="43.74" height="6.61" rx="3.3"/><rect class="cls-11" x="557.91" y="280.09" width="43.74" height="6.61" rx="3.3"/><rect class="cls-11" x="557.91" y="294.96" width="43.74" height="6.61" rx="3.3"/><rect class="cls-11" x="557.91" y="309.83" width="43.74" height="6.61" rx="3.3"/><rect class="cls-11" x="557.91" y="324.69" width="43.74" height="6.61" rx="3.3"/><rect class="cls-11" x="557.91" y="339.56" width="43.74" height="6.61" rx="3.3"/><rect class="cls-11" x="557.91" y="354.43" width="43.74" height="6.61" rx="3.3"/><rect class="cls-11" x="557.91" y="369.3" width="43.74" height="6.61" rx="3.3"/><rect class="cls-11" x="557.91" y="384.16" width="43.74" height="6.61" rx="3.3"/><rect class="cls-11" x="557.91" y="220.62" width="43.74" height="6.61" rx="3.3"/><rect class="cls-10" x="443.19" y="222.27" width="103.99" height="6.61" rx="3.3"/><path class="cls-4" d="M147,848.27H487.66a36,36,0,0,1,36,36v11.91a0,0,0,0,1,0,0H111a0,0,0,0,1,0,0V884.27A36,36,0,0,1,147,848.27Z" transform="translate(523.66 1474.44) rotate(180)"/><path class="cls-12" d="M316.93,798.43a20.86,20.86,0,0,1-29.48,29.51L194.38,734.8a24.93,24.93,0,0,1,0-32.54l93.08-93.15A20.85,20.85,0,0,1,317,638.61l-79.87,79.93Z" transform="translate(-111 -270)"/><g class="cls-13"><path class="cls-14" d="M474.59,735.81,381.51,829A20.85,20.85,0,0,1,352,799.45l79.84-79.89L352,639.62a20.85,20.85,0,1,1,29.48-29.5l93.07,93.14a24.93,24.93,0,0,1,0,32.55Z" transform="translate(-111 -270)"/></g><text class="cls-15" transform="translate(646.62 445.73) scale(0.53 1)">DirtyBits</text></g></svg>