<svg xmlns="http://www.w3.org/2000/svg" viewBox="0 0 1387.1 473.53"><defs><style>.cls-1{fill:#fff;}</style></defs><g id="Layer_2" data-name="Layer 2"><path class="cls-1" d="M261.67,690.33c38.41,20.26,3.08-1.26,14.45-12.4.9,44.26,21.44,8.75,13.44-8.49,29.36,39.28,2.74-9,6-12.1-5.79,47.18,18.45,42.32,26.29-5.86-21.42-8.94,6.73-238.09-32.07-213.21,32,4.39,26.74,9.71,27.44-14.92-22.64-8.55-26-5.39-1.91,16.63-34.08-38.73-26.52-32.43-36.77-31.58,12.68-21.81,15.81,2.53,4.91-30.52C301.62,388.37,357,412,364.09,413.51c20,8.34,41.7-6.55,39.92,18,24.3-45.63,21.66-40.85,47.31-6.56-28.38-25.69-12.95,26.45-.14,36,19.23,18.35,15.08-8.63,30.68,51.23-19.67-22.75,10.47,12.3-16.7,67.13,4.47-10.41-10.76,71.15,20.24,36-32.95,43.08-36.52,41.12-50,69.79-36.4,45.59-23.19,1.58-74.73,17.13C370.19,681.47,268.75,712.08,261.67,690.33Zm66.88-280c20.67,16.88,1.66,269.87,7.78,260.59.49,36.85,36.62,16.09,32.31,1.73,39.35,33.3,42.19-16.47,54.76-38.81,7.67,19.53,26.11-12.26,30.33-88.13-11.52-35.62.34-55.35-27.09-55,10.65-14.18-1.14-23.54-12.13-53.8-23.56-16.87-38.68-18.82-41,.12C355.14,404.79,332.37,428.41,328.55,410.3Z" transform="translate(-261.67 -370.34)"/><path class="cls-1" d="M510.2,716.21c-5.69-1.43-6.57-12.1,3.06-10.25-2.2-33,23.28-37.93,17.33-36.47,5.88,3,11-.29,8.33,15.42-10.93,11,1.17-20.94,1.42-21.17-11-5.79,2.38-141-8.85-161.53,4.9,11.31-.2,1.39-6.57,15.2,1.91,7.71-1.63-15.67-4-3.3,13.3-13.2-4.45,11.06-16.51-25.33,7.08,23.66,6.37-9-2.21-5.76,4.31,12.5,55.62-5.9,55.09-14.35,4.43-12.52,4.63,223.6,11.55,183.51-9.21,6.75-.43,13-9.93,7.84,1.33,5.76,1.07,5.76,4.6,43.94,16-38.33,24.11-19.24,26.09-6.55-3.3,10.27,10.72,10.77,2.82,33.27C590.87,693.15,508.25,717.28,510.2,716.21ZM549,434c-6.57-.35-10.46-.23-8.79-2-4.32-10.21-5.14-12.56-10.09-16.45.15-3.32,1-8.84-.87-10.39-6.1-6.14,1.83-20.38,6.13-24.67-1.4-6.36,10.29-5.18,10.24-10.16,9,3.51,12,4,13.37,12.33,5.59,6.87,6.6,8.21,6.4,20.22,6.74,3,7.57,16.74-.43,12.38,1.69,10.19-1.27,9.45-8.91,12.61C554.89,433.27,552.15,434.28,549,434Z" transform="translate(-261.67 -370.34)"/><path class="cls-1" d="M628,724c-18.2-32.3-17.6-39.68-20.4-48.51,18.75,20.43,25.68,33.79,26.93,10.69-10.21-8.64,6-2,2.58,16.9-10.14-44.64,15.75-23.86-11.53-35.66,2.24,13,11.22-123.88,11.92-134.18,11.15.13-9.12-14.7,1.77,5.64.18-10.63-15.93-42.38-14-34.32,10.57,3.75-16,6.9,2.35,5.83-25.28-3.78-10-33-6.61-34-17.72,32.07,38-10.74,59,8.6-14.23-20.72-16.75,37.13-14.5,41.28C656.8,544.4,680,522,679.13,532c-9.59-13.69-10-54.11,17.93-43.45-14.76-14.84.56-29.07-11.13,10.38,29.21-41.69,36.59-29.8,42.24-29.8-3.86-13.65,5.2,16.51-.18,9.16,3.9,6.15-.39-4.71,26.7-5.76C728.81,501.92,739.2,531,741.82,543c-11.76,12.56-3.09,15.19-19.08,4.81,4.37-6-.88-22.11-6.2-10.44,3.34-35.62,8.28-27.08-9.76-23.27,1.91,12,1-18.23,11-11.86-22,7.9-27.53-.32-30,35.15-10.58-11.42,6.31-2.67-16-30.44-5.12,30.93,9.15,34.7,9.28,18-3.14,21.41-25,162.35,0,126.44-22.66,33.91-20.59,49.6,4.83,35.87-13.65-3.39,1,9.65.47,22,15.13-7.38,13.94-2,2.86,3.08C707.27,703.73,607.4,702.71,628,724Z" transform="translate(-261.67 -370.34)"/><path class="cls-1" d="M859.83,505c8.25-37.85,3.8,5.08,11.26-27.38-11.73-3.19-42.81.75-66,42.15,5.49-33,17.37,127.35,10.67,104.5-7.71,41.58-.69,25.8,1,25.71,6.05,44,.27,38.33,26.25,51.85,1.86,4.3-1,4.65.21,6.83-1.67-44.78,2.54-3,14-21.1,2.6-31,2.51-6.63,7.19-27.36,8.77,41-2.16-13.36,13.08-7.05-.76,12-4.72,45.44,1,49.25-17.39-5.17,0-29.08-27.71-8.46,1.29-8.47,12.27-7.24.17,11.32-19.43-3-20.1.19-14.53,38.26C812,729.31,816,703.8,818.2,714.4c-5.21-31.5-13-25.85-21-38.33-13.27,26.28-7.64,9.71-12.16-17.64,11.55,9.77-4.87-148,13.92-128.87-3.73-23.51-38.71-10.15-48.79-4,23.17-14.07,15.74-36.45,10.24-55.27,13.8,35.11,13.42,24.82,23.79,15.55-15.33,2.33,2.83-11.73,12.29-.35-13.8,0,1.23-29.8-12.58-12.48-2-8.31,6.53-56.43.62-51.28,9.27-30,26.68,9.87,43.11,11.07-5.54-33.35-13.53,32.2-9.82,62.83C806.51,488.2,874,500.67,859.83,505Z" transform="translate(-261.67 -370.34)"/><path class="cls-1" d="M885.07,777.92c13.61,27.5-3.71-41.25,26.17,21.45-7.73-14.83-20.18-32.27-25.7-50.12,6.91-14.83,33.83,16.1,3.72,8.74,16.87-12.81,25,46.86,41.69,32.15-5.94-10.93-1.4,15.58-14.1,1.45,17.26,16.43,19.35-12.84,13.44-24.88-11.29-19.79-10,11.78,10.45,32.31C953,740.81,940,801.64,958,797.3c-17.82-45.16-8.46-3.69,5.81-25.82-15.18-34.93-3.77-23.55-1.85-50.67,9.29-15.8,5.09-19.87-13.92-30.5,1.41,29.77-1.37-36.93,25.46-17.32-11.44,7.89-70.27-144.21-83.13-165.18,32-3.45,28.58,28.66,8,13.06-11.24-49.22,18.86-23.19-1,13.12,16.18-37.19-28.34-24.41,4.05-57-13.63,3.39-7.27,11.93-12.62,3.75,15.46,8.95,48.82-11.52,54.19,27.79,16.12-47.25,27.69-29.18-4.35-38.86,27.74,5.35-14.43,63.51,1.79,5.44,1.61,38.15,46.1,119.77,19.89,179.7,22.61-6.89,28.42,19,2.94-12.49,30.24,11,30.64-11.4,3.74-23.25,7.8,16.35,35.75-87.23,42.68-123.09,5.48-9-19.93-9.2-25.06,24,29.06-37.69,29.53-42.88,11.12-68.64,18.63,27.78,70.89,55.47,55.61,29.8,11.31-12.39-11.34-16.36.62,37.36,16-38.58,2.31,14.62-17.16-13.05,14.05,8.54-4.42-18.61-.4-17.81,0,22.38,6.51,41.63-17.91,51,2.92-28.05-35.22,189.79-46.68,226.56,12.08-20.74-17.6,31.44-4.07,48.75-26.38-34.83-19.14-17.21-14.06,30-17.34-44.58-15.77-7.08-43.53-59.26,14.75,11.16,12.3,26.7,9.09,56.31-15.46-59-9-57,.89,2.51C900.05,819.43,893.36,821.65,885.07,777.92Z" transform="translate(-261.67 -370.34)"/><path class="cls-1" d="M1079.36,740.09c-14.52-18.26-14.86-48.21-12-46.85.72,25.47,16.74-17.22,14.56-12,4.79-12.9,21.42-19.13,4.18,13.16,29.3-10.22,3.27-42.93,9.06-13.88-.25-26.93,13.76-232.94-3.53-267.79,10.93-.34,17.15,17.8,16.93,17.42,10.84-27.36-11.7-15.52-11.47-30.45-11.73,46.56-32.3,6.64-39.22,20.62,24.57-23.67,24.91-1.85,1.8-43,26.93,23.69,112.66,20.83,86.37,53,17-.33,35.49-51.78,58.1-20.73,14.8,12.37,23.86,25.12,21.32,5.58,3.3,36.54,27.76,16.12,8.46,42.21,10.28,28.18-7.38,46.52,3,84.67-16.36-5.45-39.2-29.25-54.59,14.31,17.77-9.36-6.81-15,8.68,13.1,25.11-7.69,13.35-43.3,41.93.37-17.41-8.26,8.46,25.43-.5,22.86,22.21,21.13,5.81,37.58,26.73,32.71,1.26-16.63-28.11,5.74-14.94,69.42-7.56-14.61,0-11.18-31.07-17.05-14.37,31,5.1,35.31-3.5,18.45-15.92,7.12-49.37,11.79-40.39,27.76C1173.74,705.63,1077.59,683.76,1079.36,740.09Zm56.11-302.49c-5.77-6.62-5.91,100.5-4.79,101,.29,9.23,12.74-2.42,11.88-.52,21.65-4.42,41.83-10.85,42.4-7.74,19-12.3,12.42-35.87,14.72-40.15-.1-31,1.65-36.09-12.84-58.29-3.29-8.58-12.82-5.95-29.29-5.52C1162.29,417,1134.76,417.17,1135.47,437.6Zm.29,137.73c-6.81-7.11-7,108-5.65,108.57.34,9.93,30.56-2.59,29.54-.55,17.79-4.75,37.07-11.17,36.43-6.86,21.17-12.25,12.69-38.5,15.41-45.93-.12-34.07,2.24-39.46-14.26-62.53-3.28-8.45-14.37-5.22-34.09-4.75C1168.73,553.22,1134.93,553.38,1135.76,575.33Z" transform="translate(-261.67 -370.34)"/><path class="cls-1" d="M1276.87,721.57c8.35-10.13,4.37-33.19,2.25-46.9.52,16.19,19.36,2.81,13.17,33.86,8.83-7,19.09-17.43,21.33-48.47-15.53,9.18-8,37.1-15.13-6.09,4.59,15.65.75-125.16,4-130.93-4.83,4.24,11.72,15.86,8,9.43-9.79-35.8-9.53-19.49-11-2.12,4.47-22.93-26.28-47.08-18.91-48.46-1.18,14.62-3.93-3.39-6-6.33-3.85,25.1,63.12-10.34,56.74-5.82,4.53-9.18-.75,187.2,13.53,200.72-17.68,15.44-8.4,25.38-7.9-4.34,5.77,18.73,8.5,11.28-.75,41.24-1.17-19.34,35.54-13.85,19.41-36.36,1.93,16,12.21,27.7,12.46,35.55C1371.33,705.73,1286.12,716.83,1276.87,721.57Zm40.89-286.25c.54-2.46-4.93-5.34-9.2-10.89-3,1.69-7.12-2.69-12.2.58,1.64-5.76,5.14-13,5.7-25.86-8.41-6.57-2.81-6.33-2.23-21,6.5-1.17,9.46-1.36,16.75-2.75,4.06,1.79,18,7.49,20.75,10.93-.33-3.67,2.6,7.29,2.84,20.5,2.26.63-3.48,2.66-1.65,6.78-2.49,8-6.48,10.81-10.82,12.47C1322.44,434.52,1326.62,434.17,1317.76,435.32Z" transform="translate(-261.67 -370.34)"/><path class="cls-1" d="M1479.87,475.78c10.91,26.69,13.35,6.06,20,1.6,1,17.57-74.54,20.92-58.23,44.94.14,10.27-6.42,161.63-8.51,150.35,13.24-30.61-5.5,16.73,16.3,21.94-12.83-.07-4.4,6.1,6.23-28.86,4.44-6.63,8.83-11.53-.19,29.51,1.69-13,21-21,12,13.59,10.94-32.18,13.89-54.88,13.42-58.72,6.59,49.39.78,28.15,8.56-6.06-3.05,43.21,3,65.06,7.47,36.57-12,30.74-9.42,33.81-11.58,44.54,1-1.75-14.76-24.64-25.26-3-2.59-1.86-3.43,20.5-5.82-1.06-17.57-25.13-21.32-19.05-28.59-6,6.74-25.6-18-34.19-7-32.46-23,21.21-20.58,24.31-14.41-35.88,10.77,4.6,9.83-126.43.74-115.68,8-37.35-23.05-54-14.91-39.79-18.67,37.68-1.59,8.78-6.29-32.61,10.26,19.24-1.74,18.88,8.71,40.15,9-31.24,20.53-16.47,20-10.82,1.17,1.15-13.61-37-6.35-53-7.31,9.12,2.06-27.16,4.06-20-7.73,3,15.18,14,35.46,21.79-7-41.68-21.79,60.64-16.86,68.55C1433.59,488.13,1500.88,449.59,1479.87,475.78Z" transform="translate(-261.67 -370.34)"/><path class="cls-1" d="M1526.36,688.77c-22.71,0-3.71-27.39.74-61.94-4.06,42.41,15,27.69,14.45,25.66-13.29-31.27,3.35,19.77-12.49-1.17,16.43,28.9,22.26,31.35,5.24,12,11,21.82-3,9.62,11.86-1.35-7.38,13.37,15.27.84,2.23,18.16,23.2,22.66,13.23,30.81,18.34,15.25,24.86-9.4,7.43-17.68,35-3.67-11.54,8.71,7-9.55-6.19-11,1.73,0,13.63-20.36,4.27-15.06,3.08-43.72,18.78-49.7,12.27-21.11-19.85-4.58-13.25-39.72-20.72-31.84-1.64,2.93-9.56-18.1-10.84,18.56-12.11-17.81-19.65-29.25-39.12-26,10.76-11.69-.1-25.8-12.63-19.57-14.81-4.86-15.47-12.37-7.39-33.25-13.73-25.75-5.89-37.63,16.87-51-9.33-27.57-6.91-.88,23.82-28.88,8.51,24.2,5.66,16.91,19.65,11.31,13.66-13.46,28.77-17.65,23.63-29.78,14,43.13,22.08,36.81,18.79,24.67-8.22-10.88-5.52,64.79-1.31,76.94,4.42-5-19-3.48-20.89,1.46,4.78-30.59,15.26-43,1.62-44.25-6.73-1.27,6.56,13.81-2.94,13.66,11.26-35.77-10.11-13.94,5.51-5.48-4.76-20.43-25.94-38.4-11.63-11,2.39,3.17-12.48-16-10.77,8.64-9.3-10.85-32.27,0-37.93-22.07,11.69,23.86,7.72,12.22.8,27-3.09,28,10.25,24.09,3.55,22.28,5.83-5.08,7.2,12.27,35.21,2.73,3.05,21.93-7.72,26.14-5.91,3.39,3.39,27.72,5.28,27.45,20.49,18,12.56,11.43,24.31.83,23.68,32,12.53-7.44,22.37,15.34,25.15,54.25.38,14-13.28,23-29.83,12.42,10.61,13-8.78,54.13-18.5,41.06-6.93-20.08-25.14-14.17-22.11-2.52-31.26-13-25-14.26-48.84-17.58C1526.41,695,1534.58,682.77,1526.36,688.77Z" transform="translate(-261.67 -370.34)"/></g></svg>