<?xml version="1.0" encoding="UTF-8"?><svg xmlns="http://www.w3.org/2000/svg" xmlns:xlink="http://www.w3.org/1999/xlink" contentScriptType="text/ecmascript" width="112.5" zoomAndPan="magnify" contentStyleType="text/css" viewBox="0 0 112.5 37.5" height="37.5" preserveAspectRatio="xMidYMid meet" version="1.0"><defs><clipPath id="clip-0"><path d="M 9.964844 9 L 11 9 L 11 26 L 9.964844 26 Z M 9.964844 9 " clip-rule="nonzero"/></clipPath><clipPath id="clip-1"><path d="M 9.964844 17 L 11 17 L 11 18 L 9.964844 18 Z M 9.964844 17 " clip-rule="nonzero"/></clipPath><clipPath id="clip-2"><path d="M 9.964844 18 L 11 18 L 11 20 L 9.964844 20 Z M 9.964844 18 " clip-rule="nonzero"/></clipPath><clipPath id="clip-3"><path d="M 9.964844 20 L 11 20 L 11 21 L 9.964844 21 Z M 9.964844 20 " clip-rule="nonzero"/></clipPath><clipPath id="clip-4"><path d="M 9.964844 21 L 11 21 L 11 22 L 9.964844 22 Z M 9.964844 21 " clip-rule="nonzero"/></clipPath><clipPath id="clip-5"><path d="M 9.964844 22 L 11 22 L 11 23 L 9.964844 23 Z M 9.964844 22 " clip-rule="nonzero"/></clipPath><clipPath id="clip-6"><path d="M 9.964844 23 L 11 23 L 11 25 L 9.964844 25 Z M 9.964844 23 " clip-rule="nonzero"/></clipPath><clipPath id="clip-7"><path d="M 9.964844 16 L 11 16 L 11 17 L 9.964844 17 Z M 9.964844 16 " clip-rule="nonzero"/></clipPath><clipPath id="clip-8"><path d="M 9.964844 14 L 11 14 L 11 16 L 9.964844 16 Z M 9.964844 14 " clip-rule="nonzero"/></clipPath><clipPath id="clip-9"><path d="M 9.964844 13 L 11 13 L 11 15 L 9.964844 15 Z M 9.964844 13 " clip-rule="nonzero"/></clipPath><clipPath id="clip-10"><path d="M 9.964844 12 L 11 12 L 11 13 L 9.964844 13 Z M 9.964844 12 " clip-rule="nonzero"/></clipPath><clipPath id="clip-11"><path d="M 9.964844 11 L 11 11 L 11 12 L 9.964844 12 Z M 9.964844 11 " clip-rule="nonzero"/></clipPath><clipPath id="clip-12"><path d="M 9.964844 8.921875 L 32 8.921875 L 32 10 L 9.964844 10 Z M 9.964844 8.921875 " clip-rule="nonzero"/></clipPath><clipPath id="clip-13"><path d="M 27 19 L 35.984375 19 L 35.984375 28.25 L 27 28.25 Z M 27 19 " clip-rule="nonzero"/></clipPath></defs><path fill="rgb(39.608765%, 42.749023%, 47.059631%)" d="M 10.832031 9.742188 L 31.75 9.742188 L 31.75 25.257812 L 10.832031 25.257812 Z M 10.832031 9.742188 " fill-opacity="1" fill-rule="nonzero"/><g clip-path="url(#clip-0)"><path fill="rgb(90.19928%, 91.369629%, 92.939758%)" d="M 9.996094 9.742188 L 10.832031 9.742188 L 10.832031 25.257812 L 9.996094 25.257812 Z M 9.996094 9.742188 " fill-opacity="1" fill-rule="nonzero"/></g><g clip-path="url(#clip-1)"><path fill="rgb(79.998779%, 81.959534%, 85.099792%)" d="M 10.203125 17.710938 C 10.203125 17.59375 10.109375 17.5 9.996094 17.5 L 9.996094 17.921875 C 10.109375 17.921875 10.203125 17.828125 10.203125 17.710938 Z M 10.203125 17.710938 " fill-opacity="1" fill-rule="nonzero"/></g><g clip-path="url(#clip-2)"><path fill="rgb(79.998779%, 81.959534%, 85.099792%)" d="M 10.203125 18.96875 C 10.203125 18.851562 10.109375 18.757812 9.996094 18.757812 L 9.996094 19.179688 C 10.109375 19.179688 10.203125 19.085938 10.203125 18.96875 Z M 10.203125 18.96875 " fill-opacity="1" fill-rule="nonzero"/></g><g clip-path="url(#clip-3)"><path fill="rgb(79.998779%, 81.959534%, 85.099792%)" d="M 10.203125 20.226562 C 10.203125 20.109375 10.109375 20.015625 9.996094 20.015625 L 9.996094 20.4375 C 10.109375 20.4375 10.203125 20.34375 10.203125 20.226562 Z M 10.203125 20.226562 " fill-opacity="1" fill-rule="nonzero"/></g><g clip-path="url(#clip-4)"><path fill="rgb(79.998779%, 81.959534%, 85.099792%)" d="M 10.203125 21.484375 C 10.203125 21.367188 10.109375 21.273438 9.996094 21.273438 L 9.996094 21.695312 C 10.109375 21.695312 10.203125 21.601562 10.203125 21.484375 Z M 10.203125 21.484375 " fill-opacity="1" fill-rule="nonzero"/></g><g clip-path="url(#clip-5)"><path fill="rgb(79.998779%, 81.959534%, 85.099792%)" d="M 10.203125 22.742188 C 10.203125 22.625 10.109375 22.53125 9.996094 22.53125 L 9.996094 22.953125 C 10.109375 22.953125 10.203125 22.859375 10.203125 22.742188 Z M 10.203125 22.742188 " fill-opacity="1" fill-rule="nonzero"/></g><g clip-path="url(#clip-6)"><path fill="rgb(79.998779%, 81.959534%, 85.099792%)" d="M 10.203125 24 C 10.203125 23.882812 10.109375 23.789062 9.996094 23.789062 L 9.996094 24.210938 C 10.109375 24.210938 10.203125 24.117188 10.203125 24 Z M 10.203125 24 " fill-opacity="1" fill-rule="nonzero"/></g><g clip-path="url(#clip-7)"><path fill="rgb(79.998779%, 81.959534%, 85.099792%)" d="M 10.203125 16.453125 C 10.203125 16.335938 10.109375 16.242188 9.996094 16.242188 L 9.996094 16.664062 C 10.109375 16.664062 10.203125 16.570312 10.203125 16.453125 Z M 10.203125 16.453125 " fill-opacity="1" fill-rule="nonzero"/></g><g clip-path="url(#clip-8)"><path fill="rgb(79.998779%, 81.959534%, 85.099792%)" d="M 10.203125 15.195312 C 10.203125 15.078125 10.109375 14.984375 9.996094 14.984375 L 9.996094 15.40625 C 10.109375 15.40625 10.203125 15.3125 10.203125 15.195312 Z M 10.203125 15.195312 " fill-opacity="1" fill-rule="nonzero"/></g><g clip-path="url(#clip-9)"><path fill="rgb(79.998779%, 81.959534%, 85.099792%)" d="M 10.203125 13.9375 C 10.203125 13.820312 10.109375 13.726562 9.996094 13.726562 L 9.996094 14.148438 C 10.109375 14.148438 10.203125 14.054688 10.203125 13.9375 Z M 10.203125 13.9375 " fill-opacity="1" fill-rule="nonzero"/></g><g clip-path="url(#clip-10)"><path fill="rgb(79.998779%, 81.959534%, 85.099792%)" d="M 10.203125 12.679688 C 10.203125 12.5625 10.109375 12.46875 9.996094 12.46875 L 9.996094 12.890625 C 10.109375 12.890625 10.203125 12.796875 10.203125 12.679688 Z M 10.203125 12.679688 " fill-opacity="1" fill-rule="nonzero"/></g><g clip-path="url(#clip-11)"><path fill="rgb(79.998779%, 81.959534%, 85.099792%)" d="M 10.203125 11.421875 C 10.203125 11.304688 10.109375 11.210938 9.996094 11.210938 L 9.996094 11.632812 C 10.109375 11.632812 10.203125 11.539062 10.203125 11.421875 Z M 10.203125 11.421875 " fill-opacity="1" fill-rule="nonzero"/></g><g clip-path="url(#clip-12)"><path fill="rgb(79.998779%, 81.959534%, 85.099792%)" d="M 31.75 9.742188 L 9.996094 9.742188 L 9.996094 9.324219 C 9.996094 9.09375 10.183594 8.90625 10.414062 8.90625 L 31.332031 8.90625 C 31.5625 8.90625 31.75 9.09375 31.75 9.324219 Z M 31.75 9.742188 " fill-opacity="1" fill-rule="nonzero"/></g><path fill="rgb(90.19928%, 91.369629%, 92.939758%)" d="M 10.625 9.535156 C 10.507812 9.535156 10.414062 9.441406 10.414062 9.324219 C 10.414062 9.210938 10.503906 9.113281 10.621094 9.113281 L 10.625 9.113281 C 10.742188 9.113281 10.835938 9.210938 10.835938 9.324219 C 10.835938 9.441406 10.742188 9.535156 10.625 9.535156 Z M 10.625 9.535156 " fill-opacity="1" fill-rule="nonzero"/><path fill="rgb(90.19928%, 91.369629%, 92.939758%)" d="M 11.460938 9.535156 C 11.347656 9.535156 11.25 9.441406 11.25 9.324219 C 11.25 9.210938 11.34375 9.113281 11.457031 9.113281 L 11.460938 9.113281 C 11.578125 9.113281 11.671875 9.210938 11.671875 9.324219 C 11.671875 9.441406 11.578125 9.535156 11.460938 9.535156 Z M 11.460938 9.535156 " fill-opacity="1" fill-rule="nonzero"/><path fill="rgb(90.19928%, 91.369629%, 92.939758%)" d="M 12.296875 9.535156 C 12.183594 9.535156 12.085938 9.441406 12.085938 9.324219 C 12.085938 9.210938 12.179688 9.113281 12.292969 9.113281 L 12.296875 9.113281 C 12.414062 9.113281 12.507812 9.210938 12.507812 9.324219 C 12.507812 9.441406 12.414062 9.535156 12.296875 9.535156 Z M 12.296875 9.535156 " fill-opacity="1" fill-rule="nonzero"/><path fill="rgb(100%, 80.778503%, 32.939148%)" d="M 13.761719 11.632812 L 12.085938 11.632812 C 11.972656 11.632812 11.878906 11.539062 11.878906 11.421875 C 11.878906 11.304688 11.972656 11.210938 12.085938 11.210938 L 13.761719 11.210938 C 13.875 11.210938 13.96875 11.304688 13.96875 11.421875 C 13.96875 11.539062 13.875 11.632812 13.761719 11.632812 Z M 13.761719 11.632812 " fill-opacity="1" fill-rule="nonzero"/><path fill="rgb(62.748718%, 83.139038%, 40.779114%)" d="M 20.871094 12.890625 L 15.433594 12.890625 C 15.320312 12.890625 15.226562 12.796875 15.226562 12.679688 C 15.226562 12.5625 15.320312 12.46875 15.433594 12.46875 L 20.871094 12.46875 C 20.988281 12.46875 21.082031 12.5625 21.082031 12.679688 C 21.082031 12.796875 20.988281 12.890625 20.871094 12.890625 Z M 20.871094 12.890625 " fill-opacity="1" fill-rule="nonzero"/><path fill="rgb(62.748718%, 83.139038%, 40.779114%)" d="M 14.597656 12.890625 L 12.503906 12.890625 C 12.390625 12.890625 12.296875 12.796875 12.296875 12.679688 C 12.296875 12.5625 12.390625 12.46875 12.503906 12.46875 L 14.597656 12.46875 C 14.710938 12.46875 14.804688 12.5625 14.804688 12.679688 C 14.804688 12.796875 14.710938 12.890625 14.597656 12.890625 Z M 14.597656 12.890625 " fill-opacity="1" fill-rule="nonzero"/><path fill="rgb(98.81897%, 43.139648%, 31.759644%)" d="M 19.617188 14.148438 L 12.921875 14.148438 C 12.808594 14.148438 12.714844 14.054688 12.714844 13.9375 C 12.714844 13.820312 12.808594 13.726562 12.921875 13.726562 L 19.617188 13.726562 C 19.734375 13.726562 19.828125 13.820312 19.828125 13.9375 C 19.828125 14.054688 19.734375 14.148438 19.617188 14.148438 Z M 19.617188 14.148438 " fill-opacity="1" fill-rule="nonzero"/><path fill="rgb(100%, 80.778503%, 32.939148%)" d="M 14.179688 16.664062 L 12.921875 16.664062 C 12.808594 16.664062 12.714844 16.570312 12.714844 16.453125 C 12.714844 16.335938 12.808594 16.242188 12.921875 16.242188 L 14.179688 16.242188 C 14.292969 16.242188 14.386719 16.335938 14.386719 16.453125 C 14.386719 16.570312 14.292969 16.664062 14.179688 16.664062 Z M 14.179688 16.664062 " fill-opacity="1" fill-rule="nonzero"/><path fill="rgb(100%, 80.778503%, 32.939148%)" d="M 20.804688 16.664062 L 15.015625 16.664062 C 14.898438 16.664062 14.804688 16.570312 14.804688 16.453125 C 14.804688 16.335938 14.898438 16.242188 15.015625 16.242188 L 20.804688 16.242188 C 20.921875 16.242188 21.015625 16.335938 21.015625 16.453125 C 21.015625 16.570312 20.921875 16.664062 20.804688 16.664062 Z M 20.804688 16.664062 " fill-opacity="1" fill-rule="nonzero"/><path fill="rgb(100%, 80.778503%, 32.939148%)" d="M 14.179688 21.695312 L 12.921875 21.695312 C 12.808594 21.695312 12.714844 21.601562 12.714844 21.484375 C 12.714844 21.367188 12.808594 21.273438 12.921875 21.273438 L 14.179688 21.273438 C 14.292969 21.273438 14.386719 21.367188 14.386719 21.484375 C 14.386719 21.601562 14.292969 21.695312 14.179688 21.695312 Z M 14.179688 21.695312 " fill-opacity="1" fill-rule="nonzero"/><path fill="rgb(100%, 80.778503%, 32.939148%)" d="M 20.804688 21.695312 L 15.015625 21.695312 C 14.898438 21.695312 14.804688 21.601562 14.804688 21.484375 C 14.804688 21.367188 14.898438 21.273438 15.015625 21.273438 L 20.804688 21.273438 C 20.921875 21.273438 21.015625 21.367188 21.015625 21.484375 C 21.015625 21.601562 20.921875 21.695312 20.804688 21.695312 Z M 20.804688 21.695312 " fill-opacity="1" fill-rule="nonzero"/><path fill="rgb(30.979919%, 75.689697%, 91.369629%)" d="M 22.128906 15.40625 L 12.921875 15.40625 C 12.808594 15.40625 12.714844 15.3125 12.714844 15.195312 C 12.714844 15.078125 12.808594 14.984375 12.921875 14.984375 L 22.128906 14.984375 C 22.242188 14.984375 22.335938 15.078125 22.335938 15.195312 C 22.335938 15.3125 22.242188 15.40625 22.128906 15.40625 Z M 22.128906 15.40625 " fill-opacity="1" fill-rule="nonzero"/><path fill="rgb(62.748718%, 83.139038%, 40.779114%)" d="M 21.710938 17.921875 L 17.945312 17.921875 C 17.828125 17.921875 17.734375 17.828125 17.734375 17.710938 C 17.734375 17.59375 17.828125 17.5 17.945312 17.5 L 21.710938 17.5 C 21.824219 17.5 21.917969 17.59375 21.917969 17.710938 C 21.917969 17.828125 21.824219 17.921875 21.710938 17.921875 Z M 21.710938 17.921875 " fill-opacity="1" fill-rule="nonzero"/><path fill="rgb(67.449951%, 57.249451%, 92.549133%)" d="M 19.199219 19.179688 L 12.503906 19.179688 C 12.390625 19.179688 12.296875 19.085938 12.296875 18.96875 C 12.296875 18.851562 12.390625 18.757812 12.503906 18.757812 L 19.199219 18.757812 C 19.316406 18.757812 19.410156 18.851562 19.410156 18.96875 C 19.410156 19.085938 19.316406 19.179688 19.199219 19.179688 Z M 19.199219 19.179688 " fill-opacity="1" fill-rule="nonzero"/><path fill="rgb(67.449951%, 57.249451%, 92.549133%)" d="M 17.105469 22.953125 L 12.503906 22.953125 C 12.390625 22.953125 12.296875 22.859375 12.296875 22.742188 C 12.296875 22.625 12.390625 22.53125 12.503906 22.53125 L 17.105469 22.53125 C 17.222656 22.53125 17.316406 22.625 17.316406 22.742188 C 17.316406 22.859375 17.222656 22.953125 17.105469 22.953125 Z M 17.105469 22.953125 " fill-opacity="1" fill-rule="nonzero"/><path fill="rgb(98.81897%, 43.139648%, 31.759644%)" d="M 17.105469 20.4375 L 12.921875 20.4375 C 12.808594 20.4375 12.714844 20.34375 12.714844 20.226562 C 12.714844 20.109375 12.808594 20.015625 12.921875 20.015625 L 17.105469 20.015625 C 17.222656 20.015625 17.316406 20.109375 17.316406 20.226562 C 17.316406 20.34375 17.222656 20.4375 17.105469 20.4375 Z M 17.105469 20.4375 " fill-opacity="1" fill-rule="nonzero"/><path fill="rgb(100%, 80.778503%, 32.939148%)" d="M 13.761719 24.210938 L 12.085938 24.210938 C 11.972656 24.210938 11.878906 24.117188 11.878906 24 C 11.878906 23.882812 11.972656 23.789062 12.085938 23.789062 L 13.761719 23.789062 C 13.875 23.789062 13.96875 23.882812 13.96875 24 C 13.96875 24.117188 13.875 24.210938 13.761719 24.210938 Z M 13.761719 24.210938 " fill-opacity="1" fill-rule="nonzero"/><path fill="rgb(67.449951%, 57.249451%, 92.549133%)" d="M 22.546875 19.179688 L 20.035156 19.179688 C 19.921875 19.179688 19.828125 19.085938 19.828125 18.96875 C 19.828125 18.851562 19.921875 18.757812 20.035156 18.757812 L 22.546875 18.757812 C 22.660156 18.757812 22.753906 18.851562 22.753906 18.96875 C 22.753906 19.085938 22.660156 19.179688 22.546875 19.179688 Z M 22.546875 19.179688 " fill-opacity="1" fill-rule="nonzero"/><path fill="rgb(62.748718%, 83.139038%, 40.779114%)" d="M 17.105469 17.921875 L 12.503906 17.921875 C 12.390625 17.921875 12.296875 17.828125 12.296875 17.710938 C 12.296875 17.59375 12.390625 17.5 12.503906 17.5 L 17.105469 17.5 C 17.222656 17.5 17.316406 17.59375 17.316406 17.710938 C 17.316406 17.828125 17.222656 17.921875 17.105469 17.921875 Z M 17.105469 17.921875 " fill-opacity="1" fill-rule="nonzero"/><path fill="rgb(98.81897%, 43.139648%, 31.759644%)" d="M 25.894531 14.148438 L 20.453125 14.148438 C 20.339844 14.148438 20.246094 14.054688 20.246094 13.9375 C 20.246094 13.820312 20.339844 13.726562 20.453125 13.726562 L 25.894531 13.726562 C 26.007812 13.726562 26.101562 13.820312 26.101562 13.9375 C 26.101562 14.054688 26.007812 14.148438 25.894531 14.148438 Z M 25.894531 14.148438 " fill-opacity="1" fill-rule="nonzero"/><g clip-path="url(#clip-13)"><path fill="rgb(90.19928%, 91.369629%, 92.939758%)" d="M 29.863281 20.523438 C 29.53125 20.71875 29.234375 20.957031 28.984375 21.226562 L 28.339844 20.851562 L 27.503906 22.304688 L 28.15625 22.679688 C 27.933594 23.394531 27.925781 24.167969 28.152344 24.90625 L 27.523438 25.269531 L 28.359375 26.71875 L 28.988281 26.359375 C 29.511719 26.925781 30.183594 27.300781 30.910156 27.464844 L 30.914062 28.222656 L 32.585938 28.222656 L 32.585938 27.472656 C 32.945312 27.390625 33.296875 27.253906 33.628906 27.0625 C 33.96875 26.867188 34.257812 26.628906 34.511719 26.359375 L 35.15625 26.734375 L 35.996094 25.28125 L 35.34375 24.902344 C 35.5625 24.191406 35.570312 23.421875 35.34375 22.679688 L 35.96875 22.320312 L 35.132812 20.867188 L 34.507812 21.226562 C 33.984375 20.664062 33.308594 20.285156 32.585938 20.117188 L 32.585938 19.363281 L 30.910156 19.367188 L 30.910156 20.113281 C 30.554688 20.195312 30.203125 20.332031 29.863281 20.523438 Z M 31.75 25.261719 C 30.9375 25.261719 30.285156 24.601562 30.285156 23.792969 C 30.285156 22.984375 30.9375 22.324219 31.75 22.324219 C 32.558594 22.324219 33.214844 22.984375 33.214844 23.792969 C 33.214844 24.601562 32.558594 25.261719 31.75 25.261719 Z M 31.75 25.261719 " fill-opacity="1" fill-rule="nonzero"/></g><path fill="rgb(79.998779%, 81.959534%, 85.099792%)" d="M 31.75 21.90625 C 30.707031 21.90625 29.867188 22.753906 29.867188 23.792969 C 29.867188 24.832031 30.707031 25.679688 31.75 25.679688 C 32.789062 25.679688 33.632812 24.832031 33.632812 23.792969 C 33.632812 22.753906 32.789062 21.90625 31.75 21.90625 Z M 31.75 24.839844 C 31.171875 24.839844 30.703125 24.371094 30.703125 23.792969 C 30.703125 23.214844 31.171875 22.746094 31.75 22.746094 C 32.328125 22.746094 32.796875 23.214844 32.796875 23.792969 C 32.796875 24.371094 32.328125 24.839844 31.75 24.839844 Z M 31.75 24.839844 " fill-opacity="1" fill-rule="nonzero"/><path fill="rgb(79.998779%, 81.959534%, 85.099792%)" d="M 34.46875 24.003906 C 34.355469 24.003906 34.261719 23.910156 34.261719 23.792969 C 34.261719 22.40625 33.132812 21.277344 31.75 21.277344 C 31.636719 21.277344 31.542969 21.183594 31.542969 21.066406 C 31.542969 20.953125 31.636719 20.859375 31.75 20.859375 C 33.363281 20.859375 34.679688 22.175781 34.679688 23.792969 C 34.679688 23.910156 34.585938 24.003906 34.46875 24.003906 Z M 34.46875 24.003906 " fill-opacity="1" fill-rule="nonzero"/><path fill="rgb(79.998779%, 81.959534%, 85.099792%)" d="M 31.75 26.726562 C 30.136719 26.726562 28.820312 25.410156 28.820312 23.792969 C 28.820312 23.679688 28.914062 23.582031 29.03125 23.582031 C 29.144531 23.582031 29.238281 23.679688 29.238281 23.792969 C 29.238281 25.179688 30.367188 26.308594 31.75 26.308594 C 31.867188 26.308594 31.960938 26.402344 31.960938 26.519531 C 31.960938 26.636719 31.867188 26.726562 31.75 26.726562 Z M 31.75 26.726562 " fill-opacity="1" fill-rule="nonzero"/><path fill="rgb(90.19928%, 91.369629%, 92.939758%)" d="M 28.179688 19.03125 C 28.160156 18.804688 28.101562 18.582031 28.003906 18.371094 L 28.382812 17.996094 L 27.496094 17.105469 L 27.113281 17.484375 C 26.90625 17.386719 26.683594 17.328125 26.457031 17.3125 L 26.320312 16.792969 L 25.105469 17.117188 L 25.246094 17.628906 C 25.152344 17.691406 25.0625 17.765625 24.980469 17.847656 C 24.898438 17.933594 24.828125 18.019531 24.765625 18.117188 L 24.25 17.980469 L 23.925781 19.195312 L 24.441406 19.332031 C 24.457031 19.558594 24.515625 19.78125 24.617188 19.988281 L 24.242188 20.367188 L 25.128906 21.257812 L 25.503906 20.878906 C 25.714844 20.980469 25.933594 21.035156 26.160156 21.054688 L 26.300781 21.570312 L 27.511719 21.246094 L 27.375 20.730469 C 27.46875 20.671875 27.558594 20.597656 27.640625 20.515625 C 27.726562 20.429688 27.796875 20.34375 27.859375 20.246094 L 28.371094 20.382812 L 28.695312 19.171875 Z M 26.3125 20.019531 C 25.847656 20.019531 25.476562 19.644531 25.476562 19.179688 C 25.476562 18.71875 25.847656 18.34375 26.3125 18.34375 C 26.773438 18.34375 27.148438 18.71875 27.148438 19.179688 C 27.148438 19.644531 26.773438 20.019531 26.3125 20.019531 Z M 26.3125 20.019531 " fill-opacity="1" fill-rule="nonzero"/><path fill="rgb(79.998779%, 81.959534%, 85.099792%)" d="M 26.3125 18.132812 C 25.730469 18.132812 25.265625 18.605469 25.265625 19.179688 C 25.265625 19.761719 25.730469 20.230469 26.3125 20.230469 C 26.886719 20.230469 27.359375 19.761719 27.359375 19.179688 C 27.359375 18.605469 26.886719 18.132812 26.3125 18.132812 Z M 26.3125 19.808594 C 25.964844 19.808594 25.683594 19.53125 25.683594 19.179688 C 25.683594 18.835938 25.964844 18.550781 26.3125 18.550781 C 26.65625 18.550781 26.9375 18.835938 26.9375 19.179688 C 26.9375 19.53125 26.65625 19.808594 26.3125 19.808594 Z M 26.3125 19.808594 " fill-opacity="1" fill-rule="nonzero"/></svg>